P2 256 1 255
0 6 13 19 26 32 39 45 51 57 63 69 75 81 87 92 97 103 108 112 117 121 125 129 133 136 140 142 145 147 150 152 153 155 157 158 160 161 163 164 166 167 168 170 171 172 174 175 176 177 178 179 180 182 183 184 185 186 187 187 188 189 190 191 192 193 193 194 195 196 196 197 198 198 199 200 200 201 201 202 202 203 204 204 205 205 206 206 206 207 207 208 208 209 209 210 210 210 211 211 212 212 212 213 213 213 214 214 215 215 215 216 216 216 217 217 218 218 218 219 219 220 220 220 221 221 222 222 223 223 224 224 224 225 225 226 226 227 227 227 228 228 229 229 229 230 230 231 231 231 232 232 232 233 233 233 234 234 234 235 235 235 236 236 236 237 237 237 238 238 238 238 239 239 239 240 240 240 240 241 241 241 241 242 242 242 242 243 243 243 243 244 244 244 244 244 245 245 245 245 245 246 246 246 246 246 247 247 247 247 247 248 248 248 248 248 249 249 249 249 249 249 250 250 250 250 250 250 251 251 251 251 251 251 251 252 252 252 252 252 252 252 253 253 253 253 253 253 254 254 254 254 254 254 254 255
